{"title":"Lord.of.the.Rings.-.The.Fellowship.of.the.Ring.[2001].DvdRip.Xvi","uid":6422978,"size":2146824192,"categoryP":"video","categoryS":"movies","magnet":"?xt=urn:btih:0591c6fe0193e3f990a1ecc54553aed4719f269a&amp;dn=Lord.of.the.Rings.-.The.Fellowship.of.the.Ring.%5B2001%5D.DvdRip.Xvi&amp;tr=udp%3A%2F%2Ftracker.openbittorrent.com%3A80&amp;tr=udp%3A%2F%2Fopen.demonii.com%3A1337&amp;tr=udp%3A%2F%2Ftracker.coppersurfer.tk%3A6969&amp;tr=udp%3A%2F%2Fexodus.desync.com%3A6969","seeders":1,"leechers":0,"uploader":"Jon.Pson","files":1,"time":1306365777,"description":"In a small village in the Shire a young Hobbit named Frodo has been entrusted with an ancient Ring. Now he must embark on an Epic quest to the Cracks of Doom in order to destroy it.\n\n\nGeneral\nComplete name                    : H:\\Movies\\Lord.of.the.Rings.-.The.Fellowship.of.the.Ring.[2001].DvdRip.XviD-KnÃƒÂ£\\Lord.of.the.Rings.-.The.Fellowship.of.the.Ring.[2001].DvdRip.XviD-KnÃƒÂ£.avi\nFormat                           : AVI\nFormat/Info                      : Audio Video Interleave\nFormat profile                   : OpenDML\nFile size                        : 2.00 GiB\nDuration                         : 2h 51mn\nOverall bit rate                 : 1 673 Kbps\nWriting application              : VirtualDubMod 1.5.4.1 (build 2178/release)\nWriting library                  : VirtualDubMod build 2178/release\n\nVideo\nID                               : 0\nFormat                           : MPEG-4 Visual\nFormat profile                   : Advanced Simple@L5\nFormat settings, BVOP            : Yes\nFormat settings, QPel            : No\nFormat settings, GMC             : No warppoints\nFormat settings, Matrix          : Custom\nCodec ID                         : XVID\nCodec ID/Hint                    : XviD\nDuration                         : 2h 51mn\nBit rate                         : 1 216 Kbps\nWidth                            : 720 pixels\nHeight                           : 304 pixels\nDisplay aspect ratio             : 2.35:1\nFrame rate                       : 25.000 fps\nColor space                      : YUV\nChroma subsampling               : 4:2:0\nBit depth                        : 8 bits\nScan type                        : Progressive\nBits/(Pixel*Frame)               : 0.222\nStream size                      : 1.45 GiB (73%)\nWriting library                  : XviD 1.2.1 (UTC 2008-12-04)\n\nAudio\nID                               : 1\nFormat                           : AC-3\nFormat/Info                      : Audio Coding 3\nMode extension                   : CM (complete main)\nCodec ID                         : 2000\nDuration                         : 2h 51mn\nBit rate mode                    : Constant\nBit rate                         : 448 Kbps\nChannel(s)                       : 6 channels\nChannel positions                : Front: L C R, Side: L R, LFE\nSampling rate                    : 48.0 KHz\nBit depth                        : 16 bits\nStream size                      : 548 MiB (27%)\nAlignment                        : Aligned on interleaves\nInterleave, duration             : 96 ms (2.40 video frames)\nInterleave, preload duration     : 96 ms\nLanguage                         : English\n\n","torrent":{"xt":"urn:btih:0591c6fe0193e3f990a1ecc54553aed4719f269a","amp;dn":"Lord.of.the.Rings.-.The.Fellowship.of.the.Ring.%5B2001%5D.DvdRip.Xvi","amp;tr":["udp%3A%2F%2Ftracker.openbittorrent.com%3A80","udp%3A%2F%2Fopen.demonii.com%3A1337","udp%3A%2F%2Ftracker.coppersurfer.tk%3A6969","udp%3A%2F%2Fexodus.desync.com%3A6969"],"infoHash":"0591c6fe0193e3f990a1ecc54553aed4719f269a","infoHashBuffer":{"type":"Buffer","data":[5,145,198,254,1,147,227,249,144,161,236,197,69,83,174,212,113,159,38,154]},"announce":[],"urlList":[]}}